<svg xmlns="http://www.w3.org/2000/svg" width="772" height="150" viewBox="0 0 772 150" font-family="DejaVu Sans, Arial, sans-serif"><rect width="772" height="150" fill="#0B2440"/><g transform="translate(6,16) scale(0.92)">
<defs>
 <linearGradient id="gdk" x1="0" y1="0" x2="1" y2="1">
   <stop offset="0" stop-color="#0E2F57"/>
   <stop offset="0.55" stop-color="#1E63C4"/>
   <stop offset="1" stop-color="#12B5AC"/>
 </linearGradient>
 <filter id="sdk" x="-40%" y="-40%" width="180%" height="180%">
   <feDropShadow dx="0" dy="3" stdDeviation="3.2" flood-color="#0E2F57" flood-opacity="0.28"/>
 </filter>
</defs>
<g filter="url(#sdk)">
 <path d="M60 108 C 46 84 32 70 32 50 A 28 28 0 1 1 88 50 C 88 70 74 84 60 108 Z" fill="url(#gdk)"/>
</g>
<circle cx="60" cy="50" r="16" fill="none" stroke="#FFFFFF" stroke-opacity="0.40" stroke-width="1.6"/>
<line x1="60" y1="50" x2="60" y2="35" stroke="#FFFFFF" stroke-opacity="0.65" stroke-width="1.7" stroke-linecap="round"/>
<line x1="60" y1="50" x2="47" y2="59" stroke="#FFFFFF" stroke-opacity="0.65" stroke-width="1.7" stroke-linecap="round"/>
<line x1="60" y1="50" x2="73" y2="59" stroke="#FFFFFF" stroke-opacity="0.65" stroke-width="1.7" stroke-linecap="round"/>
<circle cx="60" cy="35" r="3.6" fill="#FFFFFF"/>
<circle cx="47" cy="59" r="3.6" fill="#FFFFFF"/>
<circle cx="73" cy="59" r="3.6" fill="#F2A341"/>
<circle cx="60" cy="50" r="5.4" fill="#FFFFFF"/>
<circle cx="60" cy="50" r="2.4" fill="#1E63C4"/>
</g>
<text x="150" y="78" font-size="46" font-weight="bold" fill="#FFFFFF" letter-spacing="0.5">GEO-TALENT <tspan fill="#12B5AC">AGENT</tspan></text>
<text x="152" y="108" font-size="15.5" font-weight="bold" fill="#9DB0C7" letter-spacing="4">GEOSPATIAL  TALENT  INTELLIGENCE</text>
</svg>